<svg xmlns="http://www.w3.org/2000/svg" viewBox="0 0 388.35 282.85"><defs><style>.cls-1{fill:#0079ff;}.cls-2{fill:#ff441a;}.cls-3{fill:#371b1b;}</style></defs><title>Asset 1</title><g id="Layer_2" data-name="Layer 2"><g id="Слой_1" data-name="Слой 1"><path class="cls-1" d="M112.59,56.12h0A56.29,56.29,0,0,0,56.47,0H.35V21.57L76.06,108.7A56.33,56.33,0,0,0,112.59,56.12Z"/><path class="cls-2" d="M.35,112.25v38.3H112.43L76.06,108.7a55.62,55.62,0,0,1-19.59,3.55Z"/><path class="cls-3" d="M.35,112.25H56.47a55.62,55.62,0,0,0,19.59-3.55L.35,21.57Z"/><path d="M76,280.3H46.41L23.75,245.16V280.3H0V188.93H37a36.3,36.3,0,0,1,13.33,2.24,25.1,25.1,0,0,1,15,15.09,31.27,31.27,0,0,1,1.88,10.91q0,10.42-5,16.91t-14.85,8.79ZM23.75,229.77h4.48q7,0,10.79-2.91a11.19,11.19,0,0,0,0-16.72q-3.76-2.91-10.79-2.91H23.75Z"/><path d="M107.82,188.93V280.3H84.07V188.93Z"/><path d="M170.17,229.16h47.14a131.13,131.13,0,0,1-.61,13.21,46.89,46.89,0,0,1-2.42,11,44,44,0,0,1-6.91,12.66,40.37,40.37,0,0,1-10.24,9.21,48.09,48.09,0,0,1-12.91,5.64,55.41,55.41,0,0,1-14.78,1.94A52,52,0,0,1,150,279.33a43.86,43.86,0,0,1-15.09-9.88,44.71,44.71,0,0,1-9.82-15.27,57,57,0,0,1-.06-39.26,43,43,0,0,1,9.82-15.21,44.63,44.63,0,0,1,15.33-9.82,54.4,54.4,0,0,1,20-3.51q14.3,0,25.08,6.18t17.09,19.15L189.8,221q-3.15-7.51-8.18-10.79A20.53,20.53,0,0,0,170.17,207a23,23,0,0,0-9.69,2,21,21,0,0,0-7.45,5.7,27.34,27.34,0,0,0-4.85,8.91,36.26,36.26,0,0,0-1.76,11.63A36.78,36.78,0,0,0,147.93,246a24.33,24.33,0,0,0,4.54,8.6,20.48,20.48,0,0,0,7.51,5.63,25.38,25.38,0,0,0,10.42,2,28.84,28.84,0,0,0,6.79-.79,17.88,17.88,0,0,0,5.88-2.54,14.47,14.47,0,0,0,4.3-4.54,18.21,18.21,0,0,0,2.3-6.79H170.17Z"/><path d="M254.17,224.19h34.3V188.93h23.75V280.3H288.46V242.61h-34.3V280.3H230.42V188.93h23.75Z"/><path d="M368.84,209V280.3H345.09V209H325.58V188.93h62.77V209Z"/></g></g></svg>