<?xml version="1.0" encoding="utf-8"?>
<!-- Generator: Adobe Illustrator 21.0.0, SVG Export Plug-In . SVG Version: 6.00 Build 0)  -->
<svg version="1.1" id="Layer_1" xmlns="http://www.w3.org/2000/svg" xmlns:xlink="http://www.w3.org/1999/xlink" x="0px" y="0px"
	 viewBox="0 0 173 43" style="enable-background:new 0 0 173 43;" xml:space="preserve">
<style type="text/css">
	.st0{fill:#4A4A4A;}
	.st1{fill:#FFFFFF;}
	.st2{fill:url(#SVGID_1_);}
	.st3{fill:url(#SVGID_2_);}
</style>
<g>
	<path d="M62.1,13l-3.3,4.8L55.4,13v6.5h-2.1V9.1H55l3.8,5.3l3.8-5.3h1.6v10.4H62L62.1,13L62.1,13z"/>
	<path d="M71.4,19.8c-0.8,0-1.5-0.1-2.1-0.4c-0.7-0.3-1.2-0.7-1.7-1.1c-0.5-0.5-0.9-1-1.1-1.7c-0.3-0.7-0.4-1.4-0.4-2.2
		s0.1-1.5,0.4-2.2s0.7-1.2,1.1-1.7c0.5-0.5,1-0.8,1.7-1.1S70.7,9,71.4,9s1.5,0.1,2.1,0.4c0.7,0.3,1.2,0.7,1.7,1.1
		c0.5,0.5,0.8,1,1.1,1.7c0.3,0.7,0.4,1.4,0.4,2.2s-0.1,1.5-0.4,2.2c-0.3,0.7-0.7,1.2-1.1,1.7c-0.5,0.5-1,0.8-1.7,1.1
		C72.9,19.6,72.2,19.8,71.4,19.8z M71.4,10.8c-0.5,0-0.9,0.1-1.3,0.3s-0.7,0.4-1,0.7s-0.5,0.7-0.7,1.1c-0.2,0.4-0.3,0.9-0.3,1.4
		s0.1,1,0.3,1.4c0.2,0.4,0.4,0.8,0.7,1.1c0.3,0.3,0.7,0.6,1,0.7c0.4,0.2,0.8,0.3,1.3,0.3s0.9-0.1,1.3-0.3c0.4-0.2,0.7-0.4,1-0.7
		s0.5-0.7,0.7-1.1s0.3-0.9,0.3-1.4s-0.1-1-0.3-1.4c-0.2-0.4-0.4-0.8-0.7-1.1c-0.3-0.3-0.7-0.6-1-0.7C72.3,10.9,71.9,10.8,71.4,10.8z
		"/>
	<path d="M88.5,16.9c-0.2,0.5-0.5,0.9-0.8,1.2c-0.3,0.4-0.7,0.7-1,0.9c-0.4,0.3-0.9,0.5-1.3,0.6c-0.5,0.1-1,0.2-1.5,0.2
		c-0.7,0-1.4-0.1-2.1-0.3c-0.7-0.2-1.3-0.6-1.9-1.2c-0.4-0.4-0.8-1-1.1-1.6c-0.3-0.7-0.4-1.4-0.4-2.2c0-0.7,0.1-1.4,0.4-2.1
		s0.6-1.3,1.1-1.9c0.2-0.2,0.4-0.4,0.6-0.5c0.2-0.2,0.5-0.3,0.8-0.5S82,9.1,82.5,9c0.4-0.1,0.9-0.1,1.4-0.1c0.6,0,1.1,0.1,1.6,0.2
		c0.5,0.1,0.9,0.3,1.3,0.5c0.3,0.2,0.7,0.4,1,0.7s0.6,0.6,0.8,1l-1.8,1.2c-0.1-0.2-0.3-0.5-0.5-0.7s-0.4-0.4-0.7-0.6
		c-0.2-0.1-0.5-0.2-0.7-0.3s-0.6-0.1-1-0.1c-0.5,0-0.9,0.1-1.3,0.2c-0.4,0.1-0.7,0.4-1,0.7s-0.5,0.6-0.7,1s-0.3,0.9-0.3,1.6
		c0,0.6,0.1,1,0.3,1.5c0.2,0.4,0.4,0.8,0.7,1.1c0.3,0.3,0.6,0.5,0.9,0.6c0.4,0.2,0.8,0.2,1.3,0.2c0.4,0,0.7-0.1,1.1-0.2
		c0.3-0.1,0.6-0.3,0.9-0.5c0.2-0.2,0.5-0.4,0.7-0.6s0.4-0.5,0.6-0.9L88.5,16.9z"/>
	<path d="M94.4,14.3l-1.8,1.5v3.6h-2.1V9.1h2.1v4.3l5-4.3h2.7L96,13l4.7,6.5h-2.5L94.4,14.3z"/>
	<path d="M106.5,19.8c-0.8,0-1.5-0.1-2.1-0.4c-0.7-0.3-1.2-0.7-1.7-1.1c-0.5-0.5-0.9-1-1.1-1.7c-0.3-0.7-0.4-1.4-0.4-2.2
		s0.1-1.5,0.4-2.2s0.7-1.2,1.1-1.7c0.5-0.5,1-0.8,1.7-1.1s1.4-0.4,2.1-0.4s1.5,0.1,2.1,0.4c0.7,0.3,1.2,0.7,1.7,1.1
		c0.5,0.5,0.8,1,1.1,1.7c0.3,0.7,0.4,1.4,0.4,2.2s-0.1,1.5-0.4,2.2c-0.3,0.7-0.7,1.2-1.1,1.7c-0.5,0.5-1,0.8-1.7,1.1
		C108,19.6,107.3,19.8,106.5,19.8z M106.5,10.8c-0.5,0-0.9,0.1-1.3,0.3s-0.7,0.4-1,0.7s-0.5,0.7-0.7,1.1c-0.2,0.4-0.3,0.9-0.3,1.4
		s0.1,1,0.3,1.4c0.2,0.4,0.4,0.8,0.7,1.1c0.3,0.3,0.7,0.6,1,0.7c0.4,0.2,0.8,0.3,1.3,0.3s0.9-0.1,1.3-0.3s0.7-0.4,1-0.7
		c0.3-0.3,0.5-0.7,0.7-1.1s0.3-0.9,0.3-1.4s-0.1-1-0.3-1.4c-0.2-0.4-0.4-0.8-0.7-1.1c-0.3-0.3-0.7-0.6-1-0.7
		C107.4,10.9,107,10.8,106.5,10.8z"/>
	<path d="M120.5,9.1c0.3,0,0.5,0.1,0.8,0.1c0.3,0.1,0.5,0.2,0.8,0.3s0.5,0.3,0.7,0.5c0.3,0.3,0.5,0.6,0.6,0.9
		c0.1,0.3,0.1,0.6,0.1,0.8c0,0.3,0,0.6-0.1,0.8s-0.1,0.4-0.2,0.6c-0.1,0.2-0.2,0.3-0.3,0.4c-0.1,0.1-0.2,0.2-0.3,0.2
		c0.2,0.1,0.4,0.2,0.6,0.4s0.4,0.4,0.6,0.7c0.1,0.3,0.3,0.5,0.3,0.8c0.1,0.3,0.1,0.5,0.1,0.8c0,0.6-0.1,1-0.3,1.4
		c-0.2,0.4-0.4,0.7-0.6,0.9c-0.4,0.4-0.9,0.7-1.4,0.8c-0.5,0.1-1,0.2-1.4,0.2H114V9.1h5.7C120,9.1,120.2,9.1,120.5,9.1z M120.4,12.9
		c0.2,0,0.4-0.1,0.5-0.2c0.1-0.1,0.2-0.1,0.3-0.3c0.1-0.1,0.1-0.3,0.1-0.6c0-0.1,0-0.2-0.1-0.4s-0.2-0.3-0.3-0.4
		c-0.1,0-0.2-0.1-0.3-0.1c-0.1,0-0.2,0-0.3-0.1c-0.1,0-0.2,0-0.3,0c-0.1,0-0.1,0-0.2,0H116v2h3.8C120.1,13,120.2,13,120.4,12.9z
		 M120.9,17.5c0.3,0,0.5-0.1,0.6-0.3c0.1-0.1,0.3-0.3,0.3-0.5c0.1-0.2,0.1-0.4,0.1-0.6c0-0.3-0.1-0.5-0.2-0.7s-0.2-0.2-0.2-0.3
		c-0.1-0.1-0.3-0.2-0.6-0.3c-0.2-0.1-0.5-0.1-0.7-0.1H116v2.7h4.1C120.4,17.6,120.6,17.6,120.9,17.5z"/>
	<path d="M136,16.9c-0.2,0.5-0.5,0.9-0.8,1.2c-0.3,0.4-0.7,0.7-1,0.9c-0.4,0.3-0.9,0.5-1.3,0.6c-0.5,0.1-1,0.2-1.5,0.2
		c-0.7,0-1.4-0.1-2.1-0.3c-0.7-0.2-1.3-0.6-1.9-1.2c-0.4-0.4-0.8-1-1.1-1.6c-0.3-0.7-0.4-1.4-0.4-2.2c0-0.7,0.1-1.4,0.4-2.1
		s0.6-1.3,1.1-1.9c0.2-0.2,0.4-0.4,0.6-0.5c0.2-0.2,0.5-0.3,0.8-0.5s0.7-0.3,1.1-0.4s0.9-0.1,1.4-0.1c0.6,0,1.1,0.1,1.6,0.2
		c0.5,0.1,0.9,0.3,1.3,0.5c0.3,0.2,0.7,0.4,1,0.7s0.6,0.6,0.8,1l-1.8,1.2c-0.1-0.2-0.3-0.5-0.5-0.7s-0.4-0.4-0.7-0.6
		c-0.2-0.1-0.5-0.2-0.7-0.3s-0.6-0.1-1-0.1c-0.5,0-0.9,0.1-1.3,0.2c-0.4,0.1-0.7,0.4-1,0.7s-0.5,0.6-0.7,1s-0.3,0.9-0.3,1.6
		c0,0.6,0.1,1,0.3,1.5c0.2,0.4,0.4,0.8,0.7,1.1s0.6,0.5,0.9,0.6c0.4,0.2,0.8,0.2,1.3,0.2c0.4,0,0.7-0.1,1.1-0.2
		c0.3-0.1,0.6-0.3,0.9-0.5c0.2-0.2,0.5-0.4,0.7-0.6s0.4-0.5,0.6-0.9L136,16.9z"/>
	<path d="M141.9,14.3l-1.8,1.5v3.6H138V9.1h2.1v4.3l5-4.3h2.7l-4.4,3.9l4.7,6.5h-2.5L141.9,14.3z"/>
	<path d="M157.2,16.9h-4.7l-1.2,2.6H149l5.1-10.4h1.6l5.2,10.4h-2.3L157.2,16.9z M153.5,14.9h2.8l-1.4-2.8L153.5,14.9z"/>
	<path d="M164.1,19.5h-2.4l2.8-4.3c-0.3-0.1-0.6-0.2-0.9-0.3c-0.3-0.2-0.6-0.4-0.8-0.6c-0.3-0.3-0.5-0.7-0.6-1
		c-0.1-0.4-0.2-0.7-0.2-1c0-0.4,0.1-0.7,0.2-1.1c0.1-0.4,0.3-0.7,0.7-1.1c0.2-0.2,0.5-0.4,0.7-0.6c0.3-0.1,0.5-0.2,0.8-0.3
		s0.5-0.1,0.7-0.1s0.5,0,0.7,0h5.8v10.4h-2.1v-4.1h-2.7L164.1,19.5z M165.5,11c-0.2,0-0.4,0-0.5,0c-0.2,0-0.4,0.1-0.5,0.2
		c-0.1,0.1-0.2,0.2-0.3,0.3c-0.1,0.2-0.1,0.3-0.1,0.6c0,0.4,0.1,0.7,0.4,0.9c0.3,0.2,0.7,0.3,1.2,0.3h3.8V11H165.5z"/>
	<path d="M62.2,23.5v2h-6.8v1.8h3c0.4,0,0.8,0,1.2,0s0.7,0.1,1.1,0.1c0.3,0.1,0.7,0.2,0.9,0.3c0.3,0.1,0.6,0.3,0.8,0.6
		c0.3,0.3,0.6,0.7,0.7,1c0.1,0.4,0.2,0.8,0.2,1.3c0,0.6-0.1,1.1-0.3,1.5c-0.2,0.4-0.4,0.7-0.7,0.9c-0.2,0.2-0.6,0.4-1,0.6
		c-0.5,0.2-1,0.3-1.7,0.3h-6.3V23.5H62.2z M59.5,31.9c0.1,0,0.3,0,0.6-0.1c0.2,0,0.5-0.1,0.7-0.3c0.1-0.1,0.2-0.3,0.3-0.5
		s0.1-0.4,0.1-0.6s0-0.4-0.1-0.6s-0.2-0.3-0.3-0.4c-0.2-0.1-0.3-0.2-0.6-0.3c-0.2,0-0.4-0.1-0.6-0.1h-4.2v2.7L59.5,31.9L59.5,31.9z"
		/>
	<path d="M66.8,33.9h-1.4V23.5h2.1v6.8l5.3-6.8h1.4v10.4h-2.1v-6.8L66.8,33.9z"/>
	<path d="M82.7,23.5c0.7,0,1.2,0.1,1.7,0.3c0.4,0.2,0.7,0.4,0.9,0.6c0.2,0.2,0.4,0.5,0.6,0.8c0.2,0.4,0.3,0.8,0.3,1.4
		s-0.1,1.1-0.3,1.5c-0.2,0.4-0.4,0.7-0.6,0.9c-0.2,0.2-0.4,0.4-0.6,0.5s-0.5,0.2-0.7,0.3c-0.2,0.1-0.4,0.1-0.6,0.1s-0.4,0-0.5,0h-4
		v4h-2.1V23.5H82.7z M82.6,27.9c0.1,0,0.3,0,0.6-0.1c0.2,0,0.4-0.1,0.6-0.3c0,0,0.1-0.1,0.2-0.3s0.2-0.4,0.2-0.7
		c0-0.3,0-0.5-0.1-0.6s-0.2-0.2-0.2-0.3c-0.1-0.1-0.3-0.2-0.5-0.2s-0.4,0-0.6,0H79v2.5H82.6L82.6,27.9z"/>
	<path d="M91.7,29.1l-2.9,4.8h-2.6l3.9-6.3l-3.7-4.2H89l3.6,4.3v-4.2h2v4.3l3.6-4.3h2.5L97,27.7l3.9,6.3h-2.6l-2.9-4.8l-1,1.1V34h-2
		v-3.8L91.7,29.1z"/>
	<path d="M110,31.3h-4.7l-1.2,2.6h-2.3l5.1-10.4h1.6l5.2,10.4h-2.3L110,31.3z M106.3,29.3h2.8l-1.4-2.8L106.3,29.3z"/>
</g>
<g>
	<rect y="-0.1" class="st0" width="43.1" height="43.1"/>
	<path class="st1" d="M10.6,13.7V29l3.6,2.3l0,0l7.2-7.2l7.3,7.3l0,0l3.6-2.3V13.7l-3.6-2l0,0L21.5,19l-7.3-7.3l0,0L10.6,13.7z
		 M24.1,21.5l4.6-4.6v9.3L24.1,21.5z M14.3,26.2v-9.3l4.6,4.6L14.3,26.2z"/>
	<g>
		
			<linearGradient id="SVGID_1_" gradientUnits="userSpaceOnUse" x1="-101.053" y1="9.3705" x2="-101.053" y2="14.3131" gradientTransform="matrix(0.7071 -0.7071 0.7071 0.7071 82.8353 -60.0739)">
			<stop  offset="0" style="stop-color:#FFFFFF"/>
			<stop  offset="1" style="stop-color:#4A4A4A"/>
		</linearGradient>
		<polygon class="st2" points="22.8,20.2 20.2,22.8 16.7,19.3 19.3,16.7 		"/>
		
			<linearGradient id="SVGID_2_" gradientUnits="userSpaceOnUse" x1="36.7168" y1="-274.2495" x2="36.7168" y2="-269.3072" gradientTransform="matrix(-0.7071 0.7071 -0.7071 -0.7071 -142.9357 -194.8606)">
			<stop  offset="0" style="stop-color:#FFFFFF"/>
			<stop  offset="1" style="stop-color:#4A4A4A"/>
		</linearGradient>
		<polygon class="st3" points="20.2,22.8 22.8,20.2 26.3,23.8 23.8,26.3 		"/>
	</g>
	<g>
		<polygon class="st1" points="23.3,17.1 25.9,19.8 19.7,25.9 17.2,23.3 		"/>
	</g>
</g>
</svg>
